<svg width="32" height="32" viewBox="0 0 32 32" fill="none" xmlns="http://www.w3.org/2000/svg">
<circle cx="16" cy="16" r="16" fill="#4DA2FF"/>
<g clip-path="url(#clip0_1_28474)">
<path fill-rule="evenodd" clip-rule="evenodd" d="M20.8197 14.4073C21.6028 15.3906 22.0711 16.6342 22.0711 17.9869C22.0711 19.3397 21.5886 20.6212 20.7848 21.61L20.7152 21.6955L20.697 21.5871C20.6812 21.4953 20.663 21.402 20.6417 21.3086C20.239 19.5398 18.9274 18.0233 16.7686 16.7948C15.3107 15.9673 14.4761 14.9722 14.257 13.8402C14.1154 13.1084 14.2206 12.3735 14.4239 11.7438C14.6272 11.1149 14.9294 10.5873 15.1865 10.2701L16.0266 9.24326C16.1737 9.0629 16.4498 9.0629 16.5969 9.24326L20.8204 14.4073H20.8197ZM22.1479 13.3813L16.5186 6.49905C16.411 6.36773 16.2101 6.36773 16.1025 6.49905L10.4741 13.3813L10.4559 13.4043C9.42037 14.6898 8.80017 16.3233 8.80017 18.1016C8.80017 22.2429 12.163 25.6002 16.3106 25.6002C20.4581 25.6002 23.821 22.2429 23.821 18.1016C23.821 16.3233 23.2008 14.6898 22.1653 13.4051L22.1471 13.3821L22.1479 13.3813ZM11.8213 14.3852L12.3244 13.769L12.3394 13.8829C12.3513 13.9731 12.3663 14.0632 12.3837 14.1542C12.7096 15.8637 13.8733 17.2884 15.8185 18.392C17.5098 19.3547 18.4947 20.4614 18.7779 21.6749C18.8966 22.1812 18.9171 22.6795 18.8657 23.1154L18.8625 23.1423L18.838 23.1542C18.0746 23.5268 17.2163 23.7364 16.3098 23.7364C13.1289 23.7364 10.55 21.1623 10.55 17.9861C10.55 16.6223 11.0254 15.3701 11.8197 14.3836L11.8213 14.3852Z" fill="#F5F5FF"/>
</g>
<defs>
<clipPath id="clip0_1_28474">
<rect width="15.0208" height="19.2" fill="white" transform="translate(8.80017 6.40006)"/>
</clipPath>
</defs>
</svg>
