<svg width="32" height="32" viewBox="0 0 32 32" fill="none" xmlns="http://www.w3.org/2000/svg">
<g clip-path="url(#clip0_1_28372)">
<path d="M16 32C24.8672 32 32 24.8672 32 16C32 7.1328 24.8672 0 16 0C7.1328 0 0 7.1328 0 16C0 24.8672 7.1328 32 16 32Z" fill="#2775CA"/>
<path d="M20.4 18.5328C20.4 16.2 18.9999 15.4 16.1999 15.0656C14.1999 14.7984 13.8 14.2656 13.8 13.3328C13.8 12.4 14.4671 11.8 15.8 11.8C16.9999 11.8 17.6671 12.2 17.9999 13.2C18.0671 13.4 18.2671 13.5328 18.4671 13.5328H19.5344C19.8015 13.5328 20.0015 13.3328 20.0015 13.0656V12.9984C19.7343 11.5312 18.5343 10.3984 17.0015 10.2656V8.6656C17.0015 8.3984 16.8016 8.1984 16.4688 8.1328H15.4687C15.2015 8.1328 15.0015 8.3328 14.936 8.6656V10.1984C12.936 10.4656 11.6687 11.7984 11.6687 13.4656C11.6687 15.6656 13.0015 16.5328 15.8015 16.8656C17.6687 17.1984 18.2688 17.5984 18.2688 18.6656C18.2688 19.7328 17.3359 20.4656 16.0687 20.4656C14.3359 20.4656 13.7359 19.7328 13.5359 18.7328C13.4688 18.4656 13.2687 18.3328 13.0687 18.3328H11.936C11.6688 18.3328 11.4688 18.5328 11.4688 18.8V18.8672C11.7359 20.5344 12.8015 21.7344 15.0015 22.0672V23.6672C15.0015 23.9344 15.2016 24.1344 15.5344 24.2H16.5344C16.8016 24.2 17.0015 24 17.0671 23.6672V22.0672C19.0655 21.7328 20.4 20.3328 20.4 18.5328Z" fill="white"/>
<path d="M12.6 25.5328C7.40003 23.6656 4.73283 17.8656 6.66723 12.7328C7.66723 9.9328 9.86723 7.8 12.6 6.8C12.8672 6.6672 13 6.4672 13 6.1328V5.2C13 4.9328 12.8672 4.7328 12.6 4.6672C12.5328 4.6672 12.4 4.6672 12.3328 4.7344C6.00003 6.7344 2.53283 13.4672 4.53283 19.8016C5.73283 23.5344 8.60003 26.4016 12.3328 27.6016C12.6 27.7344 12.8656 27.6016 12.9328 27.3344C13 27.2672 13 27.2016 13 27.0672V26.1344C13 25.9328 12.8 25.6672 12.6 25.5328ZM19.6656 4.7328C19.3984 4.6 19.1328 4.7328 19.0656 5C18.9984 5.0672 18.9984 5.1328 18.9984 5.2672V6.2C18.9984 6.4672 19.1984 6.7328 19.3984 6.8672C24.5984 8.7344 27.2656 14.5344 25.3312 19.6672C24.3312 22.4672 22.1312 24.6 19.3984 25.6C19.1312 25.7328 18.9984 25.9328 18.9984 26.2672V27.2C18.9984 27.4672 19.1312 27.6672 19.3984 27.7328C19.4656 27.7328 19.5984 27.7328 19.6656 27.6656C25.9984 25.6656 29.4656 18.9328 27.4656 12.5984C26.2656 8.8 23.3328 5.9328 19.6656 4.7328Z" fill="white"/>
</g>
<defs>
<clipPath id="clip0_1_28372">
<rect width="32" height="32" fill="white"/>
</clipPath>
</defs>
</svg>
