<svg width="24" height="24" viewBox="0 0 24 24" fill="none" xmlns="http://www.w3.org/2000/svg">
<path d="M5.78057 19.2806C5.71089 19.3503 5.62817 19.4056 5.53712 19.4433C5.44608 19.481 5.34849 19.5004 5.24995 19.5004C5.1514 19.5004 5.05382 19.481 4.96278 19.4433C4.87173 19.4056 4.78901 19.3503 4.71932 19.2806C4.64964 19.2109 4.59437 19.1282 4.55665 19.0372C4.51894 18.9461 4.49953 18.8485 4.49953 18.75C4.49953 18.6515 4.51894 18.5539 4.55665 18.4628C4.59437 18.3718 4.64964 18.2891 4.71932 18.2194L10.9396 12L4.71932 5.78062C4.57859 5.63989 4.49953 5.44902 4.49953 5.25C4.49953 5.05097 4.57859 4.8601 4.71932 4.71937C4.86005 4.57864 5.05093 4.49958 5.24995 4.49958C5.44897 4.49958 5.63984 4.57864 5.78057 4.71937L11.9999 10.9397L18.2193 4.71937C18.3601 4.57864 18.5509 4.49958 18.7499 4.49958C18.949 4.49958 19.1398 4.57864 19.2806 4.71937C19.4213 4.8601 19.5004 5.05097 19.5004 5.25C19.5004 5.44902 19.4213 5.63989 19.2806 5.78062L13.0603 12L19.2806 18.2194C19.4213 18.3601 19.5004 18.551 19.5004 18.75C19.5004 18.949 19.4213 19.1399 19.2806 19.2806C19.1398 19.4214 18.949 19.5004 18.7499 19.5004C18.5509 19.5004 18.3601 19.4214 18.2193 19.2806L11.9999 13.0603L5.78057 19.2806Z" fill="#343330"/>
</svg>
